# xmcd
#
# Track frame offsets: 
#        150
#        14590
#        30372
#        45887
#        60660
#        76670
#        87967
#        104800
#
# Disc length: 1623 seconds
#
# Revision: 4
# Processed by: cddbd v1.5.2PL0 Copyright (c) Steve Scherf et al.
# Submitted via: ExactAudioCopy v0.95a4
#
DISCID=54065508
DTITLE=The Judds - Wynonna And Naomi
DYEAR=1984
DGENRE=Country
TTITLE0=Had A Dream (For The Heart)
TTITLE1=John Deere Tractor
TTITLE2=Isn't He A Strange One
TTITLE3=Mama He's Crazy
TTITLE4=Change Of Heart
TTITLE5=Blue Nun Cafe
TTITLE6=Cry Myself To Sleep
TTITLE7=Dream Chaser
EXTD=Year: 1984
EXTT0=
EXTT1=
EXTT2=
EXTT3=
EXTT4=
EXTT5=
EXTT6=
EXTT7=
PLAYORDER=
